<?xml version="1.0" encoding="utf-8"?>
<!-- Generator: Adobe Illustrator 22.0.1, SVG Export Plug-In . SVG Version: 6.00 Build 0)  -->
<svg version="1.1" id="dnsanti_icon" xmlns="http://www.w3.org/2000/svg" xmlns:xlink="http://www.w3.org/1999/xlink" x="0px"
	 y="0px" viewBox="0 0 60 60" style="enable-background:new 0 0 60 60;" xml:space="preserve">
<style type="text/css">
	.st0{fill:none;}
	.st1{opacity:0.3;fill:url(#Shape_515_copy_10_1_);enable-background:new    ;}
	.st2{fill:#FFFFFF;}
</style>
<rect id="Rectangle_711_copy_2" class="st0" width="60" height="60"/>
<linearGradient id="Shape_515_copy_10_1_" gradientUnits="userSpaceOnUse" x1="18.3628" y1="15.0062" x2="37.7282" y2="34.3716">
	<stop  offset="0" style="stop-color:#FFFFFF"/>
	<stop  offset="1" style="stop-color:#FFFFFF;stop-opacity:0"/>
</linearGradient>
<path id="Shape_515_copy_10" class="st1" d="M31.1,39.7c-1,0.5-2,1-3.1,1.3c-4.8-1.5-8.8-5-11-9.6V16.4c7.2-1.8,14.8-1.8,22,0v7.9
	c0-0.1,0,7.8,0,7.8C37.2,35.3,34.4,38,31.1,39.7z"/>
<path id="D" class="st2" d="M37.2,41H33V28h5.3c2.1,0,4.7,2.4,4.7,6.8C43,37.4,40.6,41,37.2,41z M37,30h-2v9h2c2.2-0.2,3.9-2,4-4.2
	C41,30.9,39.2,30,37,30z M39,20c0,0-2.5-1-9-1s-9,1-9,1v13c1.9,3.7,5.1,6.6,9,8v2c-4.8-1.5-8.8-5-11-9.6V18.4c7.2-1.8,14.8-1.8,22,0
	V27h-2V20z"/>
</svg>
