<?xml version="1.0" encoding="utf-8"?>
<!-- Generator: Adobe Illustrator 22.0.1, SVG Export Plug-In . SVG Version: 6.00 Build 0)  -->
<svg version="1.1" id="mobilesdk_icon" xmlns="http://www.w3.org/2000/svg" xmlns:xlink="http://www.w3.org/1999/xlink" x="0px"
	 y="0px" viewBox="0 0 60 60" style="enable-background:new 0 0 60 60;" xml:space="preserve">
<style type="text/css">
	.st0{fill:none;}
	.st1{opacity:0.3;fill:url(#Shape_515_copy_7_1_);enable-background:new    ;}
	.st2{fill:#FFFFFF;}
</style>
<rect id="Rectangle_711_copy_8" class="st0" width="60" height="60"/>
<linearGradient id="Shape_515_copy_7_1_" gradientUnits="userSpaceOnUse" x1="18.3628" y1="15.0062" x2="37.7281" y2="34.3715">
	<stop  offset="0" style="stop-color:#FFFFFF"/>
	<stop  offset="1" style="stop-color:#FCFCFC;stop-opacity:0"/>
</linearGradient>
<path id="Shape_515_copy_7" class="st1" d="M31.1,39.7c-1,0.5-2,1-3.1,1.3c-4.8-1.5-8.8-5-11-9.6V16.4c7.2-1.8,14.8-1.8,22,0v7.9
	c0-0.1,0,7.8,0,7.8C37.2,35.3,34.4,38,31.1,39.7z"/>
<path class="st2" d="M44,34c-1,0-1.9-0.5-2.4-1.2l-3.2,1.6l-0.7,2.2c1.5,1,2,3,1,4.5s-3,2-4.5,1c-1.5-1-2-3-1-4.5
	c0.8-1.2,2.2-1.8,3.6-1.4l0.7-2l-2.8-3.8l0.8-0.6l2.8,3.7l3-1.5C41.1,31.6,41,31.3,41,31c0-1.7,1.3-3,3-3s3,1.3,3,3
	C47,32.7,45.7,34,44,34z M36,37c-1.1,0-2,0.9-2,2c0,1.1,0.9,2,2,2c1.1,0,2-0.9,2-2c0,0,0,0,0,0C38,37.9,37.1,37,36,37z M38,34L38,34
	z M44,29c-1.1,0-2,0.9-2,2c0,1.1,0.9,2,2,2c1.1,0,2-0.9,2-2v0C46,29.9,45.1,29,44,29z M39,20c0,0-2.5-1-9-1s-9,1-9,1v13
	c1.9,3.7,5.1,6.6,9,8v2c-4.8-1.5-8.8-5-11-9.6V18.4c7.2-1.8,14.8-1.8,22,0V27h-2V20z M32.5,24c1.9,0,3.5,1.6,3.5,3.5
	S34.4,31,32.5,31S29,29.4,29,27.5S30.6,24,32.5,24z M32.5,30c1.4,0,2.5-1.1,2.5-2.5S33.9,25,32.5,25c-1.4,0-2.5,1.1-2.5,2.5
	S31.1,30,32.5,30z"/>
</svg>
